# xmcd
#
# Track frame offsets:
#	150
#	11194
#	21218
#	36674
#	51121
#	64902
#	75334
#	86001
#	100335
#	113479
#	125062
#	139871
#
# Disc length: 2052 seconds
#
# Revision: 1
# Processed by: cddbd v1.5.2PL0 Copyright (c) Steve Scherf et al.
# Submitted via: audiograbber 1.83.01
#
DISCID=a208020c
DTITLE=Slim Dusty - Songs From Down Under
DYEAR=1900
DGENRE=Country
TTITLE0=Old Riders In The Grandstand
TTITLE1=A Certain Kind Of Gold
TTITLE2=Letter From Down Under
TTITLE3=Ballad Of Henry Lawson
TTITLE4=Just Going Home
TTITLE5=Roadliner
TTITLE6=Cobb And Co Twitch
TTITLE7=Sadness And I Wander Home
TTITLE8=Wild Rugged Land That I Love
TTITLE9=Song Of The West
TTITLE10=Waltzing Matilda
TTITLE11=Rodeo Riders
EXTD=
EXTT0=
EXTT1=
EXTT2=
EXTT3=
EXTT4=
EXTT5=
EXTT6=
EXTT7=
EXTT8=
EXTT9=
EXTT10=
EXTT11=
PLAYORDER=
